<mxfile host="app.diagrams.net" modified="2021-10-08T15:03:04.816Z" agent="5.0 (Windows NT 10.0; Win64; x64) AppleWebKit/537.36 (KHTML, like Gecko) Chrome/94.0.4606.71 Safari/537.36" etag="K-r3Xd330NQCGMI_un6z" version="15.4.3" type="github">
  <diagram id="R2lEEEUBdFMjLlhIrx00" name="Page-1">
    <mxGraphModel dx="2212" dy="794" grid="1" gridSize="10" guides="1" tooltips="1" connect="1" arrows="1" fold="1" page="1" pageScale="1" pageWidth="850" pageHeight="1100" math="0" shadow="0" extFonts="Permanent Marker^https://fonts.googleapis.com/css?family=Permanent+Marker">
      <root>
        <mxCell id="0" />
        <mxCell id="1" parent="0" />
        <mxCell id="3yYCjN4qb88p876HNfDu-1" value="aluga" style="shape=rhombus;perimeter=rhombusPerimeter;whiteSpace=wrap;html=1;align=center;" vertex="1" parent="1">
          <mxGeometry x="360" y="50" width="110" height="50" as="geometry" />
        </mxCell>
        <mxCell id="3yYCjN4qb88p876HNfDu-4" value="" style="endArrow=none;html=1;rounded=0;edgeStyle=orthogonalEdgeStyle;" edge="1" parent="1">
          <mxGeometry relative="1" as="geometry">
            <mxPoint x="360" y="75" as="sourcePoint" />
            <mxPoint x="280" y="75" as="targetPoint" />
            <Array as="points">
              <mxPoint x="280" y="75" />
            </Array>
          </mxGeometry>
        </mxCell>
        <mxCell id="3yYCjN4qb88p876HNfDu-5" value="1" style="resizable=0;html=1;align=right;verticalAlign=bottom;" connectable="0" vertex="1" parent="3yYCjN4qb88p876HNfDu-4">
          <mxGeometry x="1" relative="1" as="geometry">
            <mxPoint x="10" as="offset" />
          </mxGeometry>
        </mxCell>
        <mxCell id="3yYCjN4qb88p876HNfDu-8" value="Entity" style="shape=ext;margin=3;double=1;whiteSpace=wrap;html=1;align=center;" vertex="1" parent="1">
          <mxGeometry x="-170" y="330" width="100" height="40" as="geometry" />
        </mxCell>
        <mxCell id="3yYCjN4qb88p876HNfDu-10" value="Entity" style="rounded=1;arcSize=10;whiteSpace=wrap;html=1;align=center;" vertex="1" parent="1">
          <mxGeometry x="-190" y="170" width="100" height="40" as="geometry" />
        </mxCell>
        <mxCell id="3yYCjN4qb88p876HNfDu-11" value="empresa estacionamento&lt;br&gt;" style="rounded=1;arcSize=10;whiteSpace=wrap;html=1;align=center;" vertex="1" parent="1">
          <mxGeometry x="180" y="50" width="100" height="40" as="geometry" />
        </mxCell>
        <mxCell id="3yYCjN4qb88p876HNfDu-29" style="edgeStyle=orthogonalEdgeStyle;rounded=0;orthogonalLoop=1;jettySize=auto;html=1;exitX=0.5;exitY=1;exitDx=0;exitDy=0;entryX=0.5;entryY=0;entryDx=0;entryDy=0;strokeColor=none;" edge="1" parent="1" target="3yYCjN4qb88p876HNfDu-26">
          <mxGeometry relative="1" as="geometry">
            <mxPoint x="590" y="95" as="sourcePoint" />
            <Array as="points">
              <mxPoint x="595" y="95" />
            </Array>
          </mxGeometry>
        </mxCell>
        <mxCell id="3yYCjN4qb88p876HNfDu-63" style="edgeStyle=orthogonalEdgeStyle;rounded=0;orthogonalLoop=1;jettySize=auto;html=1;exitX=0.5;exitY=1;exitDx=0;exitDy=0;entryX=1;entryY=0.5;entryDx=0;entryDy=0;endArrow=none;endFill=0;strokeColor=default;" edge="1" parent="1" source="3yYCjN4qb88p876HNfDu-13" target="3yYCjN4qb88p876HNfDu-62">
          <mxGeometry relative="1" as="geometry" />
        </mxCell>
        <mxCell id="3yYCjN4qb88p876HNfDu-13" value="cliente" style="rounded=1;arcSize=10;whiteSpace=wrap;html=1;align=center;" vertex="1" parent="1">
          <mxGeometry x="540" y="360" width="100" height="40" as="geometry" />
        </mxCell>
        <mxCell id="3yYCjN4qb88p876HNfDu-58" style="edgeStyle=orthogonalEdgeStyle;rounded=0;orthogonalLoop=1;jettySize=auto;html=1;exitX=0.5;exitY=1;exitDx=0;exitDy=0;entryX=0.5;entryY=0;entryDx=0;entryDy=0;endArrow=none;endFill=0;strokeColor=default;" edge="1" parent="1" source="3yYCjN4qb88p876HNfDu-14" target="3yYCjN4qb88p876HNfDu-56">
          <mxGeometry relative="1" as="geometry" />
        </mxCell>
        <mxCell id="3yYCjN4qb88p876HNfDu-59" style="edgeStyle=orthogonalEdgeStyle;rounded=0;orthogonalLoop=1;jettySize=auto;html=1;exitX=1;exitY=0.5;exitDx=0;exitDy=0;entryX=0;entryY=0.5;entryDx=0;entryDy=0;endArrow=none;endFill=0;strokeColor=default;" edge="1" parent="1" source="3yYCjN4qb88p876HNfDu-14" target="3yYCjN4qb88p876HNfDu-53">
          <mxGeometry relative="1" as="geometry" />
        </mxCell>
        <mxCell id="3yYCjN4qb88p876HNfDu-14" value="manobrista" style="rounded=1;arcSize=10;whiteSpace=wrap;html=1;align=center;" vertex="1" parent="1">
          <mxGeometry x="280" y="220" width="100" height="40" as="geometry" />
        </mxCell>
        <mxCell id="3yYCjN4qb88p876HNfDu-50" style="edgeStyle=orthogonalEdgeStyle;rounded=0;orthogonalLoop=1;jettySize=auto;html=1;exitX=0.5;exitY=1;exitDx=0;exitDy=0;entryX=0.5;entryY=0;entryDx=0;entryDy=0;strokeColor=default;endArrow=none;endFill=0;" edge="1" parent="1" source="3yYCjN4qb88p876HNfDu-15" target="3yYCjN4qb88p876HNfDu-47">
          <mxGeometry relative="1" as="geometry" />
        </mxCell>
        <mxCell id="3yYCjN4qb88p876HNfDu-15" value="carro" style="rounded=1;arcSize=10;whiteSpace=wrap;html=1;align=center;" vertex="1" parent="1">
          <mxGeometry x="545" y="220" width="100" height="40" as="geometry" />
        </mxCell>
        <mxCell id="3yYCjN4qb88p876HNfDu-16" value="comprovante&lt;br&gt;" style="rounded=1;arcSize=10;whiteSpace=wrap;html=1;align=center;" vertex="1" parent="1">
          <mxGeometry x="280" y="360" width="100" height="40" as="geometry" />
        </mxCell>
        <mxCell id="3yYCjN4qb88p876HNfDu-18" value="Relationship" style="shape=rhombus;perimeter=rhombusPerimeter;whiteSpace=wrap;html=1;align=center;" vertex="1" parent="1">
          <mxGeometry x="-160" y="70" width="120" height="60" as="geometry" />
        </mxCell>
        <mxCell id="3yYCjN4qb88p876HNfDu-22" value="" style="endArrow=none;html=1;rounded=0;edgeStyle=orthogonalEdgeStyle;" edge="1" parent="1">
          <mxGeometry relative="1" as="geometry">
            <mxPoint x="470" y="75" as="sourcePoint" />
            <mxPoint x="540" y="74.5" as="targetPoint" />
            <Array as="points">
              <mxPoint x="502.5" y="74.5" />
              <mxPoint x="502.5" y="74.5" />
            </Array>
          </mxGeometry>
        </mxCell>
        <mxCell id="3yYCjN4qb88p876HNfDu-23" value="N" style="resizable=0;html=1;align=right;verticalAlign=bottom;" connectable="0" vertex="1" parent="3yYCjN4qb88p876HNfDu-22">
          <mxGeometry x="1" relative="1" as="geometry" />
        </mxCell>
        <mxCell id="3yYCjN4qb88p876HNfDu-24" value="" style="endArrow=none;html=1;rounded=0;edgeStyle=orthogonalEdgeStyle;exitX=0.5;exitY=0;exitDx=0;exitDy=0;entryX=0.5;entryY=1;entryDx=0;entryDy=0;" edge="1" parent="1" source="3yYCjN4qb88p876HNfDu-26" target="3yYCjN4qb88p876HNfDu-33">
          <mxGeometry relative="1" as="geometry">
            <mxPoint x="594.5" y="170" as="sourcePoint" />
            <mxPoint x="590" y="110" as="targetPoint" />
            <Array as="points">
              <mxPoint x="595" y="95" />
            </Array>
          </mxGeometry>
        </mxCell>
        <mxCell id="3yYCjN4qb88p876HNfDu-25" value="1" style="resizable=0;html=1;align=right;verticalAlign=bottom;" connectable="0" vertex="1" parent="3yYCjN4qb88p876HNfDu-24">
          <mxGeometry x="1" relative="1" as="geometry">
            <mxPoint y="20" as="offset" />
          </mxGeometry>
        </mxCell>
        <mxCell id="3yYCjN4qb88p876HNfDu-26" value="ocupa" style="shape=rhombus;perimeter=rhombusPerimeter;whiteSpace=wrap;html=1;align=center;" vertex="1" parent="1">
          <mxGeometry x="550" y="140" width="90" height="40" as="geometry" />
        </mxCell>
        <mxCell id="3yYCjN4qb88p876HNfDu-33" value="vagas" style="rounded=1;arcSize=10;whiteSpace=wrap;html=1;align=center;" vertex="1" parent="1">
          <mxGeometry x="540" y="55" width="100" height="40" as="geometry" />
        </mxCell>
        <mxCell id="3yYCjN4qb88p876HNfDu-36" value="" style="endArrow=none;html=1;rounded=0;edgeStyle=orthogonalEdgeStyle;" edge="1" parent="1">
          <mxGeometry relative="1" as="geometry">
            <mxPoint x="594.5" y="220" as="sourcePoint" />
            <mxPoint x="594.5" y="180" as="targetPoint" />
            <Array as="points">
              <mxPoint x="594.5" y="180" />
            </Array>
          </mxGeometry>
        </mxCell>
        <mxCell id="3yYCjN4qb88p876HNfDu-37" value="1" style="resizable=0;html=1;align=right;verticalAlign=bottom;" connectable="0" vertex="1" parent="3yYCjN4qb88p876HNfDu-36">
          <mxGeometry x="1" relative="1" as="geometry">
            <mxPoint x="-4" y="40" as="offset" />
          </mxGeometry>
        </mxCell>
        <mxCell id="3yYCjN4qb88p876HNfDu-51" style="edgeStyle=orthogonalEdgeStyle;rounded=0;orthogonalLoop=1;jettySize=auto;html=1;exitX=0.5;exitY=1;exitDx=0;exitDy=0;entryX=0.5;entryY=0;entryDx=0;entryDy=0;endArrow=none;endFill=0;strokeColor=default;" edge="1" parent="1" source="3yYCjN4qb88p876HNfDu-47" target="3yYCjN4qb88p876HNfDu-13">
          <mxGeometry relative="1" as="geometry">
            <Array as="points">
              <mxPoint x="595" y="360" />
            </Array>
          </mxGeometry>
        </mxCell>
        <mxCell id="3yYCjN4qb88p876HNfDu-47" value="possui" style="shape=rhombus;perimeter=rhombusPerimeter;whiteSpace=wrap;html=1;align=center;" vertex="1" parent="1">
          <mxGeometry x="550" y="290" width="90" height="40" as="geometry" />
        </mxCell>
        <mxCell id="3yYCjN4qb88p876HNfDu-54" style="edgeStyle=orthogonalEdgeStyle;rounded=0;orthogonalLoop=1;jettySize=auto;html=1;exitX=1;exitY=0.5;exitDx=0;exitDy=0;entryX=0;entryY=0.5;entryDx=0;entryDy=0;endArrow=none;endFill=0;strokeColor=default;" edge="1" parent="1" source="3yYCjN4qb88p876HNfDu-52" target="3yYCjN4qb88p876HNfDu-13">
          <mxGeometry relative="1" as="geometry" />
        </mxCell>
        <mxCell id="3yYCjN4qb88p876HNfDu-55" style="edgeStyle=orthogonalEdgeStyle;rounded=0;orthogonalLoop=1;jettySize=auto;html=1;exitX=0;exitY=0.5;exitDx=0;exitDy=0;entryX=1;entryY=0.5;entryDx=0;entryDy=0;endArrow=none;endFill=0;strokeColor=default;" edge="1" parent="1" source="3yYCjN4qb88p876HNfDu-52" target="3yYCjN4qb88p876HNfDu-16">
          <mxGeometry relative="1" as="geometry" />
        </mxCell>
        <mxCell id="3yYCjN4qb88p876HNfDu-52" value="entregue" style="shape=rhombus;perimeter=rhombusPerimeter;whiteSpace=wrap;html=1;align=center;" vertex="1" parent="1">
          <mxGeometry x="420" y="360" width="90" height="40" as="geometry" />
        </mxCell>
        <mxCell id="3yYCjN4qb88p876HNfDu-60" style="edgeStyle=orthogonalEdgeStyle;rounded=0;orthogonalLoop=1;jettySize=auto;html=1;exitX=1;exitY=0.5;exitDx=0;exitDy=0;entryX=0;entryY=0.5;entryDx=0;entryDy=0;endArrow=none;endFill=0;strokeColor=default;" edge="1" parent="1" source="3yYCjN4qb88p876HNfDu-53" target="3yYCjN4qb88p876HNfDu-15">
          <mxGeometry relative="1" as="geometry" />
        </mxCell>
        <mxCell id="3yYCjN4qb88p876HNfDu-53" value="estaciona" style="shape=rhombus;perimeter=rhombusPerimeter;whiteSpace=wrap;html=1;align=center;" vertex="1" parent="1">
          <mxGeometry x="420" y="220" width="85" height="40" as="geometry" />
        </mxCell>
        <mxCell id="3yYCjN4qb88p876HNfDu-57" style="edgeStyle=orthogonalEdgeStyle;rounded=0;orthogonalLoop=1;jettySize=auto;html=1;exitX=0.5;exitY=1;exitDx=0;exitDy=0;entryX=0.5;entryY=0;entryDx=0;entryDy=0;endArrow=none;endFill=0;strokeColor=default;" edge="1" parent="1" source="3yYCjN4qb88p876HNfDu-56" target="3yYCjN4qb88p876HNfDu-16">
          <mxGeometry relative="1" as="geometry">
            <Array as="points">
              <mxPoint x="335" y="360" />
            </Array>
          </mxGeometry>
        </mxCell>
        <mxCell id="3yYCjN4qb88p876HNfDu-56" value="registra" style="shape=rhombus;perimeter=rhombusPerimeter;whiteSpace=wrap;html=1;align=center;" vertex="1" parent="1">
          <mxGeometry x="290" y="290" width="90" height="40" as="geometry" />
        </mxCell>
        <mxCell id="3yYCjN4qb88p876HNfDu-62" value="" style="triangle;whiteSpace=wrap;html=1;rotation=-90;" vertex="1" parent="1">
          <mxGeometry x="576.25" y="420" width="37.5" height="57.5" as="geometry" />
        </mxCell>
        <mxCell id="3yYCjN4qb88p876HNfDu-77" style="edgeStyle=orthogonalEdgeStyle;rounded=0;orthogonalLoop=1;jettySize=auto;html=1;exitX=0.5;exitY=0;exitDx=0;exitDy=0;entryX=0.04;entryY=0.06;entryDx=0;entryDy=0;entryPerimeter=0;endArrow=none;endFill=0;strokeColor=default;" edge="1" parent="1" source="3yYCjN4qb88p876HNfDu-64" target="3yYCjN4qb88p876HNfDu-62">
          <mxGeometry relative="1" as="geometry" />
        </mxCell>
        <mxCell id="3yYCjN4qb88p876HNfDu-64" value="mensalista" style="rounded=1;arcSize=10;whiteSpace=wrap;html=1;align=center;" vertex="1" parent="1">
          <mxGeometry x="460" y="490" width="100" height="40" as="geometry" />
        </mxCell>
        <mxCell id="3yYCjN4qb88p876HNfDu-76" style="edgeStyle=orthogonalEdgeStyle;rounded=0;orthogonalLoop=1;jettySize=auto;html=1;exitX=0.5;exitY=0;exitDx=0;exitDy=0;entryX=-0.006;entryY=0.965;entryDx=0;entryDy=0;entryPerimeter=0;endArrow=none;endFill=0;strokeColor=default;" edge="1" parent="1" source="3yYCjN4qb88p876HNfDu-65" target="3yYCjN4qb88p876HNfDu-62">
          <mxGeometry relative="1" as="geometry" />
        </mxCell>
        <mxCell id="3yYCjN4qb88p876HNfDu-65" value="avulso" style="rounded=1;arcSize=10;whiteSpace=wrap;html=1;align=center;" vertex="1" parent="1">
          <mxGeometry x="613.75" y="490" width="100" height="40" as="geometry" />
        </mxCell>
        <mxCell id="3yYCjN4qb88p876HNfDu-83" style="edgeStyle=orthogonalEdgeStyle;rounded=0;orthogonalLoop=1;jettySize=auto;html=1;exitX=0;exitY=0;exitDx=0;exitDy=0;entryX=1;entryY=0.5;entryDx=0;entryDy=0;endArrow=none;endFill=0;strokeColor=default;" edge="1" parent="1" source="3yYCjN4qb88p876HNfDu-81" target="3yYCjN4qb88p876HNfDu-15">
          <mxGeometry relative="1" as="geometry" />
        </mxCell>
        <mxCell id="3yYCjN4qb88p876HNfDu-81" value="cor" style="ellipse;whiteSpace=wrap;html=1;align=center;" vertex="1" parent="1">
          <mxGeometry x="663.75" y="240" width="50" height="20" as="geometry" />
        </mxCell>
        <mxCell id="3yYCjN4qb88p876HNfDu-85" style="edgeStyle=orthogonalEdgeStyle;rounded=0;orthogonalLoop=1;jettySize=auto;html=1;exitX=0;exitY=1;exitDx=0;exitDy=0;entryX=1;entryY=0.25;entryDx=0;entryDy=0;endArrow=none;endFill=0;strokeColor=default;" edge="1" parent="1" source="3yYCjN4qb88p876HNfDu-84" target="3yYCjN4qb88p876HNfDu-15">
          <mxGeometry relative="1" as="geometry" />
        </mxCell>
        <mxCell id="3yYCjN4qb88p876HNfDu-84" value="placa" style="ellipse;whiteSpace=wrap;html=1;align=center;" vertex="1" parent="1">
          <mxGeometry x="663.75" y="210" width="50" height="20" as="geometry" />
        </mxCell>
        <mxCell id="3yYCjN4qb88p876HNfDu-89" style="edgeStyle=orthogonalEdgeStyle;rounded=0;orthogonalLoop=1;jettySize=auto;html=1;exitX=0;exitY=0.5;exitDx=0;exitDy=0;entryX=1;entryY=0.25;entryDx=0;entryDy=0;endArrow=none;endFill=0;strokeColor=default;" edge="1" parent="1" source="3yYCjN4qb88p876HNfDu-86" target="3yYCjN4qb88p876HNfDu-33">
          <mxGeometry relative="1" as="geometry" />
        </mxCell>
        <mxCell id="3yYCjN4qb88p876HNfDu-86" value="indentificador" style="ellipse;whiteSpace=wrap;html=1;align=center;" vertex="1" parent="1">
          <mxGeometry x="663.75" y="50" width="90" height="25" as="geometry" />
        </mxCell>
        <mxCell id="3yYCjN4qb88p876HNfDu-91" style="edgeStyle=orthogonalEdgeStyle;rounded=0;orthogonalLoop=1;jettySize=auto;html=1;exitX=0;exitY=0.5;exitDx=0;exitDy=0;entryX=1;entryY=0.75;entryDx=0;entryDy=0;endArrow=none;endFill=0;strokeColor=default;" edge="1" parent="1" source="3yYCjN4qb88p876HNfDu-87" target="3yYCjN4qb88p876HNfDu-33">
          <mxGeometry relative="1" as="geometry" />
        </mxCell>
        <mxCell id="3yYCjN4qb88p876HNfDu-87" value="status" style="ellipse;whiteSpace=wrap;html=1;align=center;" vertex="1" parent="1">
          <mxGeometry x="663.75" y="90" width="50" height="20" as="geometry" />
        </mxCell>
        <mxCell id="3yYCjN4qb88p876HNfDu-88" style="edgeStyle=orthogonalEdgeStyle;rounded=0;orthogonalLoop=1;jettySize=auto;html=1;exitX=1;exitY=0;exitDx=0;exitDy=0;entryX=1;entryY=1;entryDx=0;entryDy=0;endArrow=none;endFill=0;strokeColor=default;" edge="1" parent="1" source="3yYCjN4qb88p876HNfDu-86" target="3yYCjN4qb88p876HNfDu-86">
          <mxGeometry relative="1" as="geometry" />
        </mxCell>
        <mxCell id="3yYCjN4qb88p876HNfDu-93" style="edgeStyle=orthogonalEdgeStyle;rounded=0;orthogonalLoop=1;jettySize=auto;html=1;exitX=0;exitY=0;exitDx=0;exitDy=0;entryX=1;entryY=1;entryDx=0;entryDy=0;endArrow=none;endFill=0;strokeColor=default;" edge="1" parent="1" source="3yYCjN4qb88p876HNfDu-92" target="3yYCjN4qb88p876HNfDu-15">
          <mxGeometry relative="1" as="geometry" />
        </mxCell>
        <mxCell id="3yYCjN4qb88p876HNfDu-92" value="marca" style="ellipse;whiteSpace=wrap;html=1;align=center;" vertex="1" parent="1">
          <mxGeometry x="663.75" y="270" width="50" height="20" as="geometry" />
        </mxCell>
        <mxCell id="3yYCjN4qb88p876HNfDu-98" style="edgeStyle=orthogonalEdgeStyle;rounded=0;orthogonalLoop=1;jettySize=auto;html=1;exitX=1;exitY=0.5;exitDx=0;exitDy=0;entryX=0;entryY=0;entryDx=0;entryDy=0;endArrow=none;endFill=0;strokeColor=default;" edge="1" parent="1" source="3yYCjN4qb88p876HNfDu-94" target="3yYCjN4qb88p876HNfDu-16">
          <mxGeometry relative="1" as="geometry" />
        </mxCell>
        <mxCell id="3yYCjN4qb88p876HNfDu-94" value="chegada" style="ellipse;whiteSpace=wrap;html=1;align=center;" vertex="1" parent="1">
          <mxGeometry x="205" y="350" width="50" height="20" as="geometry" />
        </mxCell>
        <mxCell id="3yYCjN4qb88p876HNfDu-97" style="edgeStyle=orthogonalEdgeStyle;rounded=0;orthogonalLoop=1;jettySize=auto;html=1;exitX=1;exitY=0.5;exitDx=0;exitDy=0;entryX=0;entryY=0.75;entryDx=0;entryDy=0;endArrow=none;endFill=0;strokeColor=default;" edge="1" parent="1" source="3yYCjN4qb88p876HNfDu-95" target="3yYCjN4qb88p876HNfDu-16">
          <mxGeometry relative="1" as="geometry" />
        </mxCell>
        <mxCell id="3yYCjN4qb88p876HNfDu-95" value="numero&lt;br&gt;vaga" style="ellipse;whiteSpace=wrap;html=1;align=center;" vertex="1" parent="1">
          <mxGeometry x="205" y="380" width="50" height="30" as="geometry" />
        </mxCell>
        <mxCell id="3yYCjN4qb88p876HNfDu-101" style="edgeStyle=orthogonalEdgeStyle;rounded=0;orthogonalLoop=1;jettySize=auto;html=1;exitX=0;exitY=1;exitDx=0;exitDy=0;endArrow=none;endFill=0;strokeColor=default;" edge="1" parent="1" source="3yYCjN4qb88p876HNfDu-99">
          <mxGeometry relative="1" as="geometry">
            <mxPoint x="477" y="570" as="targetPoint" />
          </mxGeometry>
        </mxCell>
        <mxCell id="3yYCjN4qb88p876HNfDu-102" style="edgeStyle=orthogonalEdgeStyle;rounded=0;orthogonalLoop=1;jettySize=auto;html=1;exitX=0.5;exitY=0;exitDx=0;exitDy=0;entryX=0.36;entryY=1.05;entryDx=0;entryDy=0;entryPerimeter=0;endArrow=none;endFill=0;strokeColor=default;" edge="1" parent="1" source="3yYCjN4qb88p876HNfDu-99" target="3yYCjN4qb88p876HNfDu-64">
          <mxGeometry relative="1" as="geometry" />
        </mxCell>
        <mxCell id="3yYCjN4qb88p876HNfDu-99" value="nome" style="ellipse;whiteSpace=wrap;html=1;align=center;" vertex="1" parent="1">
          <mxGeometry x="470" y="560" width="50" height="20" as="geometry" />
        </mxCell>
        <mxCell id="3yYCjN4qb88p876HNfDu-105" style="edgeStyle=orthogonalEdgeStyle;rounded=0;orthogonalLoop=1;jettySize=auto;html=1;exitX=0.5;exitY=0;exitDx=0;exitDy=0;entryX=0.87;entryY=1.05;entryDx=0;entryDy=0;entryPerimeter=0;endArrow=none;endFill=0;strokeColor=default;" edge="1" parent="1" source="3yYCjN4qb88p876HNfDu-103" target="3yYCjN4qb88p876HNfDu-64">
          <mxGeometry relative="1" as="geometry" />
        </mxCell>
        <mxCell id="3yYCjN4qb88p876HNfDu-103" value="valor&lt;br&gt;mensal" style="ellipse;whiteSpace=wrap;html=1;align=center;" vertex="1" parent="1">
          <mxGeometry x="520" y="560" width="50" height="30" as="geometry" />
        </mxCell>
        <mxCell id="3yYCjN4qb88p876HNfDu-215" style="edgeStyle=orthogonalEdgeStyle;rounded=0;orthogonalLoop=1;jettySize=auto;html=1;exitX=0.5;exitY=0;exitDx=0;exitDy=0;entryX=0.25;entryY=1;entryDx=0;entryDy=0;endArrow=none;endFill=0;strokeColor=default;" edge="1" parent="1" source="3yYCjN4qb88p876HNfDu-214" target="3yYCjN4qb88p876HNfDu-16">
          <mxGeometry relative="1" as="geometry" />
        </mxCell>
        <mxCell id="3yYCjN4qb88p876HNfDu-214" value="saida" style="ellipse;whiteSpace=wrap;html=1;align=center;" vertex="1" parent="1">
          <mxGeometry x="280" y="420" width="50" height="20" as="geometry" />
        </mxCell>
        <mxCell id="3yYCjN4qb88p876HNfDu-217" style="edgeStyle=orthogonalEdgeStyle;rounded=0;orthogonalLoop=1;jettySize=auto;html=1;exitX=0.5;exitY=0;exitDx=0;exitDy=0;entryX=0.75;entryY=1;entryDx=0;entryDy=0;endArrow=none;endFill=0;strokeColor=default;" edge="1" parent="1" source="3yYCjN4qb88p876HNfDu-216" target="3yYCjN4qb88p876HNfDu-65">
          <mxGeometry relative="1" as="geometry" />
        </mxCell>
        <mxCell id="3yYCjN4qb88p876HNfDu-216" value="" style="ellipse;whiteSpace=wrap;html=1;align=center;" vertex="1" parent="1">
          <mxGeometry x="670" y="555" width="30" height="15" as="geometry" />
        </mxCell>
        <mxCell id="3yYCjN4qb88p876HNfDu-218" value="valor &lt;br&gt;estacionamento&lt;br&gt;" style="text;html=1;align=center;verticalAlign=middle;resizable=0;points=[];autosize=1;strokeColor=none;fillColor=none;" vertex="1" parent="1">
          <mxGeometry x="670" y="555" width="100" height="30" as="geometry" />
        </mxCell>
      </root>
    </mxGraphModel>
  </diagram>
</mxfile>
